<svg xmlns="http://www.w3.org/2000/svg" xmlns:xlink="http://www.w3.org/1999/xlink" width="420" zoomAndPan="magnify" viewBox="0 0 1440 809.999993" height="350" preserveAspectRatio="xMidYMid meet" version="1.0"><path fill="#000000" d="M 722.144531 417.597656 L 722.703125 417.597656 L 722.703125 410.390625 L 717.246094 410.390625 L 717.246094 417.597656 Z M 720.175781 410.945312 L 722.144531 410.945312 L 722.144531 412.71875 L 720.175781 412.71875 Z M 720.175781 413.269531 L 722.144531 413.269531 L 722.144531 414.996094 L 720.175781 414.996094 Z M 720.175781 415.550781 L 722.144531 415.550781 L 722.144531 417.039062 L 720.175781 417.039062 Z M 717.808594 410.945312 L 719.734375 410.945312 L 719.734375 412.71875 L 717.808594 412.71875 Z M 717.808594 413.269531 L 719.734375 413.269531 L 719.734375 414.996094 L 717.808594 414.996094 Z M 717.808594 415.550781 L 719.734375 415.550781 L 719.734375 417.039062 L 717.808594 417.039062 Z M 734.484375 437.695312 L 714.488281 437.417969 L 733.859375 437.152344 C 733.882812 436.914062 733.902344 436.566406 733.871094 436.167969 C 733.828125 435.644531 733.234375 435.152344 732.875 434.898438 L 710.582031 434.625 L 714.785156 434.394531 L 714.996094 424.09375 L 715.34375 434.390625 L 724.625 434.453125 L 724.472656 423.234375 L 725.183594 434.449219 L 732.558594 434.355469 C 732.152344 430.613281 728.714844 398.734375 728.714844 395.828125 C 728.714844 392.742188 730.878906 391.984375 730.878906 391.984375 L 730.9375 391.730469 L 725.609375 390.613281 L 725.269531 390.609375 C 725.269531 390.609375 724.820312 391.015625 724.609375 391.230469 C 724.398438 391.453125 724.203125 391.6875 724.03125 391.941406 C 723.308594 393.015625 723.359375 394.296875 723.3125 395.53125 L 723.242188 397.4375 C 723.242188 397.4375 723.175781 395.613281 723.171875 395.535156 C 723.148438 394.894531 723.105469 394.253906 723.117188 393.617188 C 723.128906 392.953125 723.351562 392.304688 723.671875 391.726562 C 723.835938 391.4375 724.03125 391.164062 724.242188 390.910156 C 724.332031 390.800781 724.425781 390.699219 724.519531 390.601562 L 715.6875 390.632812 C 715.835938 390.847656 715.90625 390.910156 716.019531 391.136719 C 716.15625 391.410156 716.28125 391.691406 716.375 391.980469 C 716.574219 392.554688 716.679688 393.15625 716.703125 393.757812 C 716.722656 394.363281 716.652344 394.945312 716.628906 395.53125 C 716.601562 396.121094 716.5625 396.707031 716.585938 397.292969 C 716.519531 396.710938 716.507812 396.117188 716.492188 395.53125 C 716.472656 394.941406 716.496094 394.347656 716.429688 393.777344 C 716.359375 393.207031 716.214844 392.648438 715.984375 392.125 C 715.875 391.863281 715.738281 391.613281 715.59375 391.367188 C 715.445312 391.132812 715.277344 390.886719 715.105469 390.695312 L 710.652344 391.5625 L 714.980469 390.359375 L 714.984375 390.355469 L 714.996094 390.355469 L 725.632812 390.21875 L 725.648438 390.214844 L 731.222656 391.230469 C 731.339844 391.140625 731.492188 391.035156 731.644531 390.976562 C 731.960938 390.847656 731.898438 389.527344 731.898438 389.527344 L 727.789062 388.679688 C 727 388.617188 726.210938 388.558594 725.425781 388.507812 C 724.226562 388.429688 723.027344 388.34375 721.832031 388.335938 C 720.628906 388.328125 719.425781 388.34375 718.226562 388.355469 L 714.617188 388.40625 L 715.375 388.320312 L 715.5 386.117188 L 715.957031 388.105469 L 718.222656 388.035156 C 719.421875 387.976562 720.625 388.097656 721.828125 388.058594 C 722.597656 388.035156 723.363281 388.042969 724.128906 388.058594 L 724.402344 385.902344 L 724.675781 388.070312 C 724.933594 388.078125 725.1875 388.082031 725.445312 388.089844 C 726.164062 388.109375 726.878906 388.136719 727.597656 388.164062 L 727.511719 385.703125 L 726.800781 385.554688 L 726.800781 380.871094 C 727.171875 380.875 727.921875 380.757812 727.921875 379.746094 C 727.921875 378.917969 727.253906 378.410156 726.636719 378.003906 C 726.167969 377.886719 725.695312 377.773438 725.226562 377.664062 C 724.386719 377.46875 723.539062 377.289062 722.691406 377.144531 C 722.269531 377.078125 721.839844 377.011719 721.414062 376.980469 C 720.988281 376.953125 720.554688 376.933594 720.121094 376.921875 C 719.257812 376.902344 718.390625 376.90625 717.527344 376.945312 C 718.390625 376.859375 719.253906 376.808594 720.121094 376.785156 C 720.554688 376.773438 720.988281 376.765625 721.425781 376.773438 C 721.863281 376.78125 722.296875 376.824219 722.730469 376.867188 C 723.597656 376.96875 724.453125 377.105469 725.308594 377.253906 C 725.445312 377.277344 725.582031 377.304688 725.71875 377.332031 C 725.71875 377.328125 725.714844 377.324219 725.710938 377.320312 C 725.296875 376.785156 724.105469 373.699219 720.871094 373.320312 L 719.988281 373.21875 L 720.871094 373.054688 L 720.871094 372.433594 L 721.335938 372.433594 L 720.71875 371.378906 L 720.105469 370.320312 L 719.488281 371.378906 L 718.871094 372.433594 L 719.332031 372.433594 L 719.332031 373.308594 C 718.359375 373.421875 716.765625 373.875 715.617188 375.539062 C 713.847656 378.09375 713.574219 377.792969 713.066406 378.09375 C 712.554688 378.398438 712.082031 379.039062 712.421875 379.777344 C 712.625 380.226562 713.003906 380.488281 713.269531 380.625 L 713.269531 385.609375 L 712.625 385.734375 L 712.625 388.601562 L 708.136719 389.527344 C 708.136719 389.527344 708.070312 390.847656 708.390625 390.976562 C 708.707031 391.101562 709.027344 391.417969 709.027344 391.417969 L 709.152344 391.984375 C 709.152344 391.984375 711.316406 392.742188 711.316406 395.828125 C 711.316406 398.917969 707.433594 434.71875 707.433594 434.71875 C 707.433594 434.71875 706.226562 435.410156 706.160156 436.167969 C 706.097656 436.921875 706.226562 437.492188 706.226562 437.492188 L 705.398438 437.742188 L 705.398438 439.757812 L 734.632812 439.757812 L 734.632812 437.742188 Z M 723.398438 379.914062 C 724.890625 380.101562 725.746094 380.402344 726.1875 380.613281 L 726.1875 383.011719 L 723.398438 382.234375 Z M 723.398438 382.769531 L 726.1875 383.402344 L 726.1875 385.429688 L 724.417969 385.0625 L 723.398438 385.0625 Z M 720.339844 379.746094 C 720.351562 379.746094 720.363281 379.746094 720.375 379.746094 C 721.304688 379.746094 722.101562 379.785156 722.789062 379.847656 L 722.789062 382.203125 L 720.339844 382.203125 Z M 720.339844 382.671875 L 722.789062 382.671875 L 722.789062 385.0625 L 720.339844 385.0625 Z M 717.382812 379.886719 C 718.058594 379.816406 718.839844 379.769531 719.730469 379.75 L 719.730469 382.203125 L 717.382812 382.203125 Z M 717.382812 382.671875 L 719.730469 382.671875 L 719.730469 385.0625 L 717.382812 385.0625 Z M 713.882812 380.621094 C 714.316406 380.449219 715.230469 380.15625 716.769531 379.957031 L 716.769531 382.175781 L 713.882812 382.980469 Z M 713.882812 383.378906 L 716.769531 382.722656 L 716.769531 385.0625 L 716.058594 385.0625 L 713.882812 385.488281 Z M 719.734375 431.558594 L 717.808594 431.558594 L 717.808594 430.066406 L 719.734375 430.066406 Z M 719.734375 429.511719 L 717.808594 429.511719 L 717.808594 427.789062 L 719.734375 427.789062 Z M 719.734375 427.234375 L 717.808594 427.234375 L 717.808594 425.460938 L 719.734375 425.460938 Z M 722.144531 431.558594 L 720.28125 431.558594 L 720.28125 430.066406 L 722.144531 430.066406 Z M 722.144531 429.511719 L 720.28125 429.511719 L 720.28125 427.789062 L 722.144531 427.789062 Z M 722.144531 427.234375 L 720.28125 427.234375 L 720.28125 425.460938 L 722.144531 425.460938 Z M 720.28125 397.992188 L 722.144531 397.992188 L 722.144531 399.769531 L 720.28125 399.769531 Z M 720.28125 400.320312 L 722.144531 400.320312 L 722.144531 402.046875 L 720.28125 402.046875 Z M 720.28125 402.597656 L 722.144531 402.597656 L 722.144531 404.089844 L 720.28125 404.089844 Z M 717.808594 397.992188 L 719.734375 397.992188 L 719.734375 399.769531 L 717.808594 399.769531 Z M 717.808594 400.320312 L 719.734375 400.320312 L 719.734375 402.046875 L 717.808594 402.046875 Z M 717.808594 402.597656 L 719.734375 402.597656 L 719.734375 404.089844 L 717.808594 404.089844 Z M 711.128906 407.480469 C 711.128906 407.480469 714.527344 406.976562 719.964844 406.976562 C 725.40625 406.976562 728.941406 407.3125 728.941406 407.3125 L 730.335938 421.179688 C 730.335938 421.179688 728.128906 421.09375 725.15625 421.035156 L 724.25 408.464844 L 724.628906 421.023438 C 723.136719 420.996094 721.480469 420.976562 719.832031 420.976562 C 718.207031 420.976562 716.617188 420.996094 715.195312 421.023438 L 715.574219 408.464844 L 714.667969 421.035156 C 711.777344 421.09375 709.699219 421.179688 709.699219 421.179688 Z M 711.128906 407.480469 " fill-opacity="1" fill-rule="nonzero"/></svg>