<svg xmlns="http://www.w3.org/2000/svg" xmlns:xlink="http://www.w3.org/1999/xlink" width="300" zoomAndPan="magnify" viewBox="0 0 390 189.000001" height="100" preserveAspectRatio="xMidYMid meet" version="1.0"><defs><g/></defs><path fill="#000000" d="M 92.382812 115.230469 L 93.648438 115.230469 L 93.648438 98.761719 L 81.304688 98.761719 L 81.304688 115.230469 Z M 87.929688 100.03125 L 92.382812 100.03125 L 92.382812 104.085938 L 87.929688 104.085938 Z M 87.929688 105.347656 L 92.382812 105.347656 L 92.382812 109.292969 L 87.929688 109.292969 Z M 87.929688 110.550781 L 92.382812 110.550781 L 92.382812 113.960938 L 87.929688 113.960938 Z M 82.570312 100.03125 L 86.929688 100.03125 L 86.929688 104.085938 L 82.570312 104.085938 Z M 82.570312 105.347656 L 86.929688 105.347656 L 86.929688 109.292969 L 82.570312 109.292969 Z M 82.570312 110.550781 L 86.929688 110.550781 L 86.929688 113.960938 L 82.570312 113.960938 Z M 120.300781 161.160156 L 75.058594 160.527344 L 118.886719 159.914062 C 118.945312 159.367188 118.992188 158.578125 118.914062 157.664062 C 118.816406 156.46875 117.476562 155.34375 116.660156 154.761719 L 66.21875 154.140625 L 75.730469 153.617188 L 76.207031 130.074219 L 76.992188 153.601562 L 98 153.75 L 97.652344 128.109375 L 99.257812 153.734375 L 115.945312 153.527344 C 115.03125 144.972656 107.25 72.132812 107.25 65.492188 C 107.25 58.4375 112.144531 56.707031 112.144531 56.707031 L 112.273438 56.125 L 100.222656 53.578125 L 99.453125 53.570312 C 99.453125 53.570312 98.4375 54.492188 97.960938 54.988281 C 97.484375 55.492188 97.039062 56.03125 96.65625 56.609375 C 95.019531 59.0625 95.132812 61.992188 95.03125 64.8125 L 94.871094 69.167969 C 94.871094 69.167969 94.71875 64.996094 94.710938 64.820312 C 94.660156 63.363281 94.5625 61.894531 94.582031 60.4375 C 94.609375 58.921875 95.109375 57.4375 95.839844 56.117188 C 96.214844 55.457031 96.652344 54.835938 97.132812 54.25 C 97.335938 54.007812 97.542969 53.773438 97.761719 53.546875 L 77.773438 53.621094 C 78.109375 54.113281 78.269531 54.257812 78.53125 54.769531 C 78.835938 55.398438 79.113281 56.039062 79.328125 56.699219 C 79.777344 58.011719 80.015625 59.386719 80.074219 60.761719 C 80.121094 62.144531 79.957031 63.472656 79.902344 64.816406 C 79.839844 66.15625 79.757812 67.5 79.808594 68.84375 C 79.65625 67.503906 79.632812 66.15625 79.59375 64.8125 C 79.550781 63.46875 79.605469 62.105469 79.453125 60.808594 C 79.296875 59.503906 78.964844 58.226562 78.445312 57.035156 C 78.195312 56.433594 77.886719 55.859375 77.558594 55.304688 C 77.230469 54.757812 76.84375 54.203125 76.457031 53.765625 L 66.382812 55.746094 L 76.171875 52.996094 L 76.1875 52.988281 L 76.207031 52.988281 L 100.273438 52.671875 L 100.3125 52.667969 L 112.921875 54.988281 C 113.1875 54.777344 113.53125 54.542969 113.875 54.402344 C 114.59375 54.117188 114.449219 51.089844 114.449219 51.089844 L 105.152344 49.15625 C 103.371094 49.019531 101.585938 48.882812 99.804688 48.761719 C 97.09375 48.585938 94.378906 48.390625 91.675781 48.375 C 88.957031 48.359375 86.238281 48.386719 83.515625 48.414062 L 75.355469 48.53125 L 77.066406 48.332031 L 77.351562 43.300781 L 78.382812 47.84375 L 83.507812 47.6875 C 86.226562 47.554688 88.941406 47.828125 91.667969 47.738281 C 93.40625 47.679688 95.140625 47.699219 96.875 47.738281 L 97.488281 42.808594 L 98.109375 47.765625 C 98.691406 47.777344 99.269531 47.792969 99.851562 47.808594 C 101.476562 47.855469 103.097656 47.914062 104.71875 47.976562 L 104.53125 42.355469 L 102.914062 42.019531 L 102.914062 31.316406 C 103.757812 31.324219 105.453125 31.054688 105.453125 28.742188 C 105.453125 26.851562 103.941406 25.6875 102.546875 24.769531 C 101.484375 24.496094 100.421875 24.234375 99.355469 23.984375 C 97.453125 23.542969 95.542969 23.128906 93.621094 22.800781 C 92.664062 22.648438 91.699219 22.496094 90.734375 22.425781 C 89.761719 22.359375 88.785156 22.320312 87.808594 22.296875 C 85.851562 22.25 83.894531 22.257812 81.9375 22.34375 C 83.886719 22.152344 85.84375 22.035156 87.808594 21.976562 C 88.789062 21.953125 89.769531 21.9375 90.753906 21.953125 C 91.75 21.96875 92.730469 22.070312 93.710938 22.171875 C 95.667969 22.398438 97.609375 22.710938 99.546875 23.054688 C 99.855469 23.109375 100.164062 23.167969 100.472656 23.226562 C 100.46875 23.21875 100.460938 23.210938 100.453125 23.203125 C 99.515625 21.976562 96.816406 14.929688 89.5 14.0625 L 87.503906 13.832031 L 89.5 13.453125 L 89.5 12.039062 L 90.554688 12.039062 L 87.765625 7.210938 L 86.375 9.625 L 84.980469 12.039062 L 86.023438 12.039062 L 86.023438 14.03125 C 83.816406 14.292969 80.210938 15.328125 77.613281 19.128906 C 73.613281 24.972656 72.996094 24.28125 71.84375 24.972656 C 70.691406 25.664062 69.613281 27.125 70.382812 28.820312 C 70.847656 29.839844 71.699219 30.4375 72.304688 30.753906 L 72.304688 42.140625 L 70.84375 42.429688 L 70.84375 48.980469 L 60.6875 51.089844 C 60.6875 51.089844 60.542969 54.117188 61.261719 54.402344 C 61.984375 54.691406 62.703125 55.410156 62.703125 55.410156 L 62.992188 56.707031 C 62.992188 56.707031 67.886719 58.4375 67.886719 65.492188 C 67.886719 72.550781 59.101562 154.351562 59.101562 154.351562 C 59.101562 154.351562 56.367188 155.933594 56.222656 157.664062 C 56.078125 159.390625 56.367188 160.6875 56.367188 160.6875 L 54.496094 161.265625 L 54.496094 165.871094 L 120.644531 165.871094 L 120.644531 161.265625 Z M 95.222656 29.128906 C 98.597656 29.554688 100.527344 30.246094 101.53125 30.730469 L 101.53125 36.203125 L 95.222656 34.429688 Z M 95.222656 35.652344 L 101.53125 37.097656 L 101.53125 41.730469 L 97.53125 40.894531 L 95.222656 40.894531 Z M 88.300781 28.742188 C 88.328125 28.742188 88.351562 28.742188 88.378906 28.742188 C 90.480469 28.742188 92.289062 28.832031 93.839844 28.976562 L 93.839844 34.355469 L 88.300781 34.355469 Z M 88.300781 35.433594 L 93.839844 35.433594 L 93.839844 40.894531 L 88.300781 40.894531 Z M 81.609375 29.0625 C 83.144531 28.90625 84.90625 28.792969 86.917969 28.757812 L 86.917969 34.355469 L 81.609375 34.355469 Z M 81.609375 35.433594 L 86.917969 35.433594 L 86.917969 40.894531 L 81.609375 40.894531 Z M 73.691406 30.742188 C 74.667969 30.351562 76.742188 29.683594 80.226562 29.226562 L 80.226562 34.300781 L 73.691406 36.140625 Z M 73.691406 37.042969 L 80.226562 35.546875 L 80.226562 40.894531 L 78.613281 40.894531 L 73.691406 41.867188 Z M 86.929688 147.128906 L 82.570312 147.128906 L 82.570312 143.71875 L 86.929688 143.71875 Z M 86.929688 142.460938 L 82.570312 142.460938 L 82.570312 138.515625 L 86.929688 138.515625 Z M 86.929688 137.257812 L 82.570312 137.257812 L 82.570312 133.199219 L 86.929688 133.199219 Z M 92.382812 147.128906 L 88.167969 147.128906 L 88.167969 143.71875 L 92.382812 143.71875 Z M 92.382812 142.460938 L 88.167969 142.460938 L 88.167969 138.515625 L 92.382812 138.515625 Z M 92.382812 137.257812 L 88.167969 137.257812 L 88.167969 133.199219 L 92.382812 133.199219 Z M 88.167969 70.4375 L 92.382812 70.4375 L 92.382812 74.496094 L 88.167969 74.496094 Z M 88.167969 75.757812 L 92.382812 75.757812 L 92.382812 79.699219 L 88.167969 79.699219 Z M 88.167969 80.960938 L 92.382812 80.960938 L 92.382812 84.367188 L 88.167969 84.367188 Z M 82.570312 70.4375 L 86.929688 70.4375 L 86.929688 74.496094 L 82.570312 74.496094 Z M 82.570312 75.757812 L 86.929688 75.757812 L 86.929688 79.699219 L 82.570312 79.699219 Z M 82.570312 80.960938 L 86.929688 80.960938 L 86.929688 84.367188 L 82.570312 84.367188 Z M 67.460938 92.117188 C 67.460938 92.117188 75.152344 90.960938 87.457031 90.960938 C 99.761719 90.960938 107.761719 91.730469 107.761719 91.730469 L 110.914062 123.417969 C 110.914062 123.417969 105.925781 123.222656 99.199219 123.089844 L 97.144531 94.367188 L 98.003906 123.066406 C 94.628906 123 90.886719 122.957031 87.148438 122.957031 C 83.476562 122.957031 79.882812 123 76.664062 123.0625 L 77.523438 94.367188 L 75.46875 123.085938 C 68.925781 123.222656 64.230469 123.417969 64.230469 123.417969 Z M 67.460938 92.117188 " fill-opacity="1" fill-rule="nonzero"/><g fill="#000000" fill-opacity="1"><g transform="translate(215.605294, 118.87942)"><g><path d="M 6.9375 -14.625 C 8.414062 -14.625 9.6875 -14.359375 10.75 -13.828125 C 11.820312 -13.296875 12.644531 -12.484375 13.21875 -11.390625 C 13.789062 -10.304688 14.078125 -8.945312 14.078125 -7.3125 C 14.078125 -5.664062 13.789062 -4.300781 13.21875 -3.21875 C 12.644531 -2.132812 11.820312 -1.328125 10.75 -0.796875 C 9.6875 -0.265625 8.414062 0 6.9375 0 L 2.203125 0 L 2.203125 -14.625 Z M 6.765625 -1.453125 C 7.992188 -1.453125 9.003906 -1.640625 9.796875 -2.015625 C 10.597656 -2.398438 11.207031 -3.023438 11.625 -3.890625 C 12.039062 -4.753906 12.25 -5.894531 12.25 -7.3125 C 12.25 -8.738281 12.039062 -9.878906 11.625 -10.734375 C 11.207031 -11.585938 10.597656 -12.203125 9.796875 -12.578125 C 9.003906 -12.960938 7.992188 -13.15625 6.765625 -13.15625 L 3.9375 -13.15625 L 3.9375 -1.453125 Z M 6.765625 -1.453125 "/></g></g></g><g fill="#000000" fill-opacity="1"><g transform="translate(231.146414, 118.87942)"><g><path d="M 3.9375 0 L 2.203125 0 L 2.203125 -14.625 L 3.9375 -14.625 Z M 3.9375 0 "/></g></g></g><g fill="#000000" fill-opacity="1"><g transform="translate(237.296862, 118.87942)"><g><path d="M 13.15625 0 L 11.328125 0 L 9.96875 -4.015625 L 3.734375 -4.015625 L 2.375 0 L 0.578125 0 L 5.6875 -14.625 L 8.0625 -14.625 Z M 6.734375 -12.859375 L 4.21875 -5.453125 L 9.484375 -5.453125 L 6.984375 -12.859375 Z M 6.734375 -12.859375 "/></g></g></g><g fill="#000000" fill-opacity="1"><g transform="translate(251.037852, 118.87942)"><g><path d="M 2.203125 0 L 2.203125 -14.625 L 7.515625 -14.625 C 8.492188 -14.625 9.316406 -14.460938 9.984375 -14.140625 C 10.660156 -13.816406 11.164062 -13.359375 11.5 -12.765625 C 11.832031 -12.171875 12 -11.472656 12 -10.671875 C 12 -9.765625 11.769531 -9.015625 11.3125 -8.421875 C 10.851562 -7.835938 10.144531 -7.394531 9.1875 -7.09375 L 9.1875 -6.890625 C 9.664062 -6.703125 10.050781 -6.40625 10.34375 -6 C 10.644531 -5.601562 10.925781 -5.007812 11.1875 -4.21875 L 12.53125 0 L 10.765625 0 L 9.296875 -4.46875 C 9.128906 -5 8.929688 -5.410156 8.703125 -5.703125 C 8.472656 -6.003906 8.1875 -6.222656 7.84375 -6.359375 C 7.5 -6.492188 7.054688 -6.5625 6.515625 -6.5625 L 3.9375 -6.5625 L 3.9375 0 Z M 7.484375 -8.015625 C 8.398438 -8.015625 9.078125 -8.226562 9.515625 -8.65625 C 9.960938 -9.082031 10.1875 -9.726562 10.1875 -10.59375 C 10.1875 -11.457031 9.960938 -12.097656 9.515625 -12.515625 C 9.078125 -12.941406 8.398438 -13.15625 7.484375 -13.15625 L 3.9375 -13.15625 L 3.9375 -8.015625 Z M 7.484375 -8.015625 "/></g></g></g><g fill="#000000" fill-opacity="1"><g transform="translate(264.578828, 118.87942)"><g><path d="M 3.9375 0 L 2.203125 0 L 2.203125 -14.625 L 3.9375 -14.625 Z M 3.9375 0 "/></g></g></g><g fill="#000000" fill-opacity="1"><g transform="translate(270.729277, 118.87942)"><g><path d="M 8.015625 0.203125 C 6.753906 0.203125 5.628906 -0.0664062 4.640625 -0.609375 C 3.648438 -1.160156 2.867188 -1.992188 2.296875 -3.109375 C 1.734375 -4.234375 1.453125 -5.632812 1.453125 -7.3125 C 1.453125 -8.988281 1.734375 -10.382812 2.296875 -11.5 C 2.867188 -12.625 3.648438 -13.457031 4.640625 -14 C 5.628906 -14.550781 6.753906 -14.828125 8.015625 -14.828125 C 9.285156 -14.828125 10.410156 -14.550781 11.390625 -14 C 12.378906 -13.457031 13.15625 -12.625 13.71875 -11.5 C 14.289062 -10.382812 14.578125 -8.988281 14.578125 -7.3125 C 14.578125 -5.632812 14.289062 -4.234375 13.71875 -3.109375 C 13.15625 -1.992188 12.378906 -1.160156 11.390625 -0.609375 C 10.410156 -0.0664062 9.285156 0.203125 8.015625 0.203125 Z M 8.015625 -1.375 C 9.535156 -1.375 10.703125 -1.847656 11.515625 -2.796875 C 12.335938 -3.753906 12.75 -5.257812 12.75 -7.3125 C 12.75 -9.363281 12.335938 -10.863281 11.515625 -11.8125 C 10.703125 -12.769531 9.535156 -13.25 8.015625 -13.25 C 4.867188 -13.25 3.296875 -11.269531 3.296875 -7.3125 C 3.296875 -3.351562 4.867188 -1.375 8.015625 -1.375 Z M 8.015625 -1.375 "/></g></g></g><g fill="#000000" fill-opacity="1"><g transform="translate(286.771718, 118.87942)"><g/></g></g><g fill="#000000" fill-opacity="1"><g transform="translate(291.79208, 118.87942)"><g/></g></g><g fill="#000000" fill-opacity="1"><g transform="translate(296.812442, 118.87942)"><g/></g></g><g fill="#000000" fill-opacity="1"><g transform="translate(301.832803, 118.87942)"><g/></g></g><g fill="#000000" fill-opacity="1"><g transform="translate(306.853165, 118.87942)"><g/></g></g><g fill="#000000" fill-opacity="1"><g transform="translate(311.873527, 118.87942)"><g/></g></g><g fill="#000000" fill-opacity="1"><g transform="translate(316.893888, 118.87942)"><g/></g></g><g fill="#000000" fill-opacity="1"><g transform="translate(321.91425, 118.87942)"><g/></g></g><g fill="#000000" fill-opacity="1"><g transform="translate(326.934611, 118.87942)"><g/></g></g><g fill="#000000" fill-opacity="1"><g transform="translate(331.954973, 118.87942)"><g/></g></g><g fill="#000000" fill-opacity="1"><g transform="translate(336.975335, 118.87942)"><g/></g></g><g fill="#000000" fill-opacity="1"><g transform="translate(129.78609, 163.098037)"><g><path d="M 24.648438 -1.796875 L 16.074219 -1.796875 L 16.074219 -15.667969 L 18.992188 -15.667969 C 22.492188 -15.265625 22.851562 -9.382812 22.851562 -9.382812 L 24.695312 -9.382812 L 24.695312 -23.886719 L 22.851562 -23.886719 C 22.851562 -23.886719 22.449219 -17.511719 18.542969 -17.511719 L 16.074219 -17.511719 L 16.074219 -29.589844 L 24.648438 -29.589844 C 30.484375 -29.589844 35.246094 -18.363281 35.246094 -18.363281 L 37.175781 -18.363281 L 32.550781 -31.382812 L 1.167969 -31.382812 L 1.167969 -29.589844 L 5.433594 -29.589844 L 5.433594 -1.796875 L 1.167969 -1.796875 L 1.167969 0.0429688 L 32.550781 0.0429688 L 37.175781 -13.019531 L 35.246094 -13.019531 C 35.246094 -13.019531 30.484375 -1.796875 24.648438 -1.796875 Z M 7.855469 -1.796875 L 7.855469 -29.589844 L 10.191406 -29.589844 L 10.191406 -1.796875 Z M 7.855469 -1.796875 "/></g></g></g><g fill="#000000" fill-opacity="1"><g transform="translate(168.170355, 163.098037)"><g><path d="M 33.136719 -13.019531 C 33.136719 -13.019531 28.332031 -1.796875 22.539062 -1.796875 L 16.074219 -1.796875 L 16.074219 -29.589844 L 20.382812 -29.589844 L 20.382812 -31.382812 L 1.167969 -31.382812 L 1.167969 -29.589844 L 5.433594 -29.589844 L 5.433594 -1.796875 L 1.167969 -1.796875 L 1.167969 0 L 30.394531 0 L 35.019531 -13.019531 Z M 7.855469 -29.589844 L 10.191406 -29.589844 L 10.191406 -1.796875 L 7.855469 -1.796875 Z M 7.855469 -29.589844 "/></g></g></g><g fill="#000000" fill-opacity="1"><g transform="translate(203.277366, 163.098037)"><g/></g></g><g fill="#000000" fill-opacity="1"><g transform="translate(224.242808, 163.098037)"><g><path d="M 32.550781 -31.382812 L 1.167969 -31.382812 L 1.167969 -29.589844 L 5.433594 -29.589844 L 5.433594 -1.796875 L 1.167969 -1.796875 L 1.167969 0 L 20.339844 0 L 20.339844 -1.796875 L 16.074219 -1.796875 L 16.074219 -15.667969 L 18.992188 -15.667969 C 22.492188 -15.265625 22.851562 -9.382812 22.851562 -9.382812 L 24.695312 -9.382812 L 24.695312 -23.886719 L 22.851562 -23.886719 C 22.851562 -23.886719 22.449219 -17.511719 18.542969 -17.511719 L 16.074219 -17.511719 L 16.074219 -29.589844 L 24.648438 -29.589844 C 30.484375 -29.589844 35.246094 -18.363281 35.246094 -18.363281 L 37.175781 -18.363281 Z M 10.191406 -1.796875 L 7.855469 -1.796875 L 7.855469 -29.589844 L 10.191406 -29.589844 Z M 10.191406 -1.796875 "/></g></g></g><g fill="#000000" fill-opacity="1"><g transform="translate(262.627073, 163.098037)"><g><path d="M 36.683594 -1.796875 L 23.03125 -31.382812 L 11.136719 -31.382812 L 11.136719 -29.589844 L 15.894531 -29.589844 L 4.085938 -3.949219 C 4.085938 -3.949219 3.007812 -2.019531 0.0429688 -1.796875 L 0.0429688 0.0429688 L 9.832031 0.0429688 L 9.832031 -1.796875 L 9.25 -1.796875 C 5.972656 -1.976562 7.09375 -5.296875 7.09375 -5.296875 L 9.742188 -11 L 21.820312 -11 L 26.042969 -1.796875 L 22.582031 -1.796875 L 22.582031 0.0429688 L 39.734375 0.0429688 L 39.734375 -1.796875 Z M 10.6875 -13.019531 L 15.804688 -24.15625 L 20.878906 -13.019531 Z M 28.464844 -1.796875 L 17.015625 -26.757812 L 18.183594 -29.273438 L 30.800781 -1.796875 Z M 28.464844 -1.796875 "/></g></g></g><g fill="#000000" fill-opacity="1"><g transform="translate(302.447936, 163.098037)"><g><path d="M 35.378906 -1.796875 L 28.195312 -12.527344 C 32.058594 -13.648438 34.886719 -17.195312 34.886719 -21.417969 L 34.886719 -22.179688 C 34.886719 -27.296875 30.753906 -31.429688 25.636719 -31.429688 L 1.167969 -31.429688 L 1.167969 -29.589844 L 5.433594 -29.589844 L 5.433594 -1.796875 L 1.167969 -1.796875 L 1.167969 0 L 18.992188 0 L 19.035156 -1.796875 L 16.074219 -1.796875 L 16.074219 -12.167969 L 16.117188 -12.167969 L 24.335938 0.0429688 L 24.335938 0 L 37.804688 0 L 37.804688 -1.796875 Z M 24.828125 -29.589844 C 26.894531 -29.589844 30.261719 -26.398438 30.261719 -22.136719 L 30.261719 -21.507812 C 30.261719 -17.195312 26.535156 -14.007812 24.558594 -14.007812 L 23.886719 -14.007812 C 25.277344 -14.007812 27.835938 -17.195312 27.835938 -21.507812 L 27.835938 -22.136719 C 27.835938 -26.398438 25.007812 -29.589844 24.109375 -29.589844 Z M 20.113281 -29.589844 C 23.347656 -29.589844 25.996094 -26.398438 25.996094 -22.136719 L 25.996094 -21.507812 C 25.996094 -17.195312 23.839844 -14.007812 20.160156 -14.007812 L 16.074219 -14.007812 L 16.074219 -29.589844 Z M 7.855469 -1.796875 L 7.855469 -29.589844 L 10.191406 -29.589844 L 10.191406 -1.796875 Z M 25.863281 -1.796875 L 18.855469 -12.167969 L 21.867188 -12.210938 L 28.871094 -1.796875 Z M 25.863281 -1.796875 "/></g></g></g><g fill="#000000" fill-opacity="1"><g transform="translate(341.460705, 163.098037)"><g><path d="M 18.992188 -32.820312 C 9.113281 -32.820312 1.167969 -25.367188 1.167969 -16.164062 C 1.167969 -6.960938 9.113281 0.492188 18.992188 0.492188 C 28.824219 0.492188 36.816406 -6.960938 36.816406 -16.164062 C 36.816406 -25.367188 28.824219 -32.820312 18.992188 -32.820312 Z M 3.007812 -16.164062 C 3.007812 -23.121094 7.675781 -28.914062 13.695312 -29.859375 C 9.023438 -26.847656 5.972656 -21.820312 5.972656 -16.164062 C 5.972656 -10.460938 9.023438 -5.433594 13.695312 -2.425781 C 7.675781 -3.414062 3.007812 -9.160156 3.007812 -16.164062 Z M 18.992188 -2.289062 C 15.21875 -2.289062 12.210938 -8.484375 12.210938 -16.164062 C 12.210938 -23.796875 15.21875 -29.992188 18.992188 -29.992188 C 22.71875 -29.992188 25.773438 -23.796875 25.773438 -16.164062 C 25.773438 -8.484375 22.71875 -2.289062 18.992188 -2.289062 Z M 23.347656 -2.378906 C 25.863281 -4.804688 27.613281 -10.058594 27.613281 -16.164062 C 27.613281 -22.226562 25.863281 -27.476562 23.347656 -29.949219 C 27.386719 -29.230469 30.53125 -23.347656 30.53125 -16.164062 C 30.53125 -8.980469 27.386719 -3.054688 23.347656 -2.378906 Z M 23.347656 -2.378906 "/></g></g></g></svg>